<?xml version="1.0" encoding="utf-8"?>
<!-- Generator: Adobe Illustrator 27.4.0, SVG Export Plug-In . SVG Version: 6.00 Build 0)  -->
<svg version="1.1" id="Capa_1" shape-rendering="crispEdges"
	 xmlns="http://www.w3.org/2000/svg" xmlns:xlink="http://www.w3.org/1999/xlink" x="0px" y="0px" viewBox="0 0 198.4 70.9"
	 style="enable-background:new 0 0 198.4 70.9;" xml:space="preserve">
<style type="text/css">
	.st0{fill:#FFFFFF;}
	.st1{font-family:'ArialMT';}
	.st2{font-size:12px;}
</style>
<g>
	<rect y="0" class="st0" width="198.4" height="70.9"/>
</g>
<g>
	<rect x="28.3" y="5.7" width="2.1" height="45.4"/>
	<rect x="31.5" y="5.7" width="1.1" height="45.4"/>
	<rect x="34.7" y="5.7" width="3.2" height="45.4"/>
	<rect x="40" y="5.7" width="4.2" height="45.4"/>
	<rect x="45.3" y="5.7" width="1.1" height="45.4"/>
	<rect x="47.4" y="5.7" width="3.2" height="45.4"/>
	<rect x="51.6" y="5.7" width="2.1" height="45.4"/>
	<rect x="55.8" y="5.7" width="2.1" height="45.4"/>
	<rect x="59" y="5.7" width="2.1" height="45.4"/>
	<rect x="63.3" y="5.7" width="1.1" height="45.4"/>
	<rect x="66.4" y="5.7" width="3.2" height="45.4"/>
	<rect x="71.7" y="5.7" width="2.1" height="45.4"/>
	<rect x="74.9" y="5.7" width="1.1" height="45.4"/>
	<rect x="79.1" y="5.7" width="4.2" height="45.4"/>
	<rect x="84.4" y="5.7" width="1.1" height="45.4"/>
	<rect x="86.5" y="5.7" width="2.1" height="45.4"/>
	<rect x="89.7" y="5.7" width="2.1" height="45.4"/>
	<rect x="93.9" y="5.7" width="2.1" height="45.4"/>
	<rect x="98.2" y="5.7" width="1.1" height="45.4"/>
	<rect x="100.3" y="5.7" width="2.1" height="45.4"/>
	<rect x="106.6" y="5.7" width="1.1" height="45.4"/>
	<rect x="109.8" y="5.7" width="1.1" height="45.4"/>
	<rect x="113" y="5.7" width="1.1" height="45.4"/>
	<rect x="116.1" y="5.7" width="4.2" height="45.4"/>
	<rect x="121.4" y="5.7" width="3.2" height="45.4"/>
	<rect x="125.7" y="5.7" width="2.1" height="45.4"/>
	<rect x="128.8" y="5.7" width="1.1" height="45.4"/>
	<rect x="133.1" y="5.7" width="3.2" height="45.4"/>
	<rect x="138.3" y="5.7" width="1.1" height="45.4"/>
	<rect x="140.5" y="5.7" width="2.1" height="45.4"/>
	<rect x="144.7" y="5.7" width="4.2" height="45.4"/>
	<rect x="151" y="5.7" width="1.1" height="45.4"/>
	<rect x="154.2" y="5.7" width="1.1" height="45.4"/>
	<rect x="156.3" y="5.7" width="2.1" height="45.4"/>
	<rect x="161.6" y="5.7" width="3.2" height="45.4"/>
	<rect x="165.8" y="5.7" width="1.1" height="45.4"/>
	<rect x="168" y="5.7" width="2.1" height="45.4"/>
</g>
<g>
	<text transform="matrix(1 0 0 1 52.4955 68.1814)" class="st1 st2">17790070760057</text>
</g>
<path d="M0,0v56.7h198.4V0H0z M192.8,51H5.7V5.7h187.1V51z"/>
<g>
	<rect x="28.3" y="5.7" width="2.1" height="45.4"/>
	<rect x="31.5" y="5.7" width="1.1" height="45.4"/>
	<rect x="34.6" y="5.7" width="3.2" height="45.4"/>
	<rect x="39.9" y="5.7" width="4.2" height="45.4"/>
	<rect x="45.2" y="5.7" width="1.1" height="45.4"/>
	<rect x="47.3" y="5.7" width="3.2" height="45.4"/>
	<rect x="51.6" y="5.7" width="2.1" height="45.4"/>
	<rect x="55.8" y="5.7" width="2.1" height="45.4"/>
	<rect x="59" y="5.7" width="2.1" height="45.4"/>
	<rect x="63.2" y="5.7" width="1.1" height="45.4"/>
	<rect x="66.4" y="5.7" width="3.2" height="45.4"/>
	<rect x="71.7" y="5.7" width="2.1" height="45.4"/>
	<rect x="74.9" y="5.7" width="1.1" height="45.4"/>
	<rect x="79.1" y="5.7" width="4.2" height="45.4"/>
	<rect x="84.4" y="5.7" width="1.1" height="45.4"/>
	<rect x="86.5" y="5.7" width="2.1" height="45.4"/>
	<rect x="89.7" y="5.7" width="2.1" height="45.4"/>
	<rect x="93.9" y="5.7" width="2.1" height="45.4"/>
	<rect x="98.1" y="5.7" width="1.1" height="45.4"/>
	<rect x="100.3" y="5.7" width="2.1" height="45.4"/>
	<rect x="106.6" y="5.7" width="1.1" height="45.4"/>
	<rect x="109.8" y="5.7" width="2.1" height="45.4"/>
	<rect x="114" y="5.7" width="1.1" height="45.4"/>
	<rect x="116.1" y="5.7" width="1.1" height="45.4"/>
	<rect x="121.4" y="5.7" width="2.1" height="45.4"/>
	<rect x="124.6" y="5.7" width="2.1" height="45.4"/>
	<rect x="128.8" y="5.7" width="2.1" height="45.4"/>
	<rect x="133.1" y="5.7" width="3.2" height="45.4"/>
	<rect x="137.3" y="5.7" width="2.1" height="45.4"/>
	<rect x="140.5" y="5.7" width="1.1" height="45.4"/>
	<rect x="144.7" y="5.7" width="1.1" height="45.4"/>
	<rect x="147.9" y="5.7" width="4.2" height="45.4"/>
	<rect x="153.2" y="5.7" width="1.1" height="45.4"/>
	<rect x="156.3" y="5.7" width="2.1" height="45.4"/>
	<rect x="161.6" y="5.7" width="3.2" height="45.4"/>
	<rect x="165.9" y="5.7" width="1.1" height="45.4"/>
	<rect x="168" y="5.7" width="2.1" height="45.4"/>
</g>
</svg>
