<?xml version="1.0" encoding="utf-8"?>
<!-- Generator: Adobe Illustrator 26.5.0, SVG Export Plug-In . SVG Version: 6.00 Build 0)  -->
<svg version="1.1" id="Capa_1" xmlns="http://www.w3.org/2000/svg" xmlns:xlink="http://www.w3.org/1999/xlink" x="0px" y="0px"
	 viewBox="0 0 100 54.87" style="enable-background:new 0 0 100 54.87;" xml:space="preserve">
<style type="text/css">
	.st0{fill-rule:evenodd;clip-rule:evenodd;fill:#FFFFFF;}
</style>
<g>
	<path class="st0" d="M29.87,24.7c-0.17-1.1-0.43-2.15-0.49-3.2c-0.32-5.83,1.4-10.97,5.39-15.27c3.14-3.39,7.11-5.24,11.65-5.94
		c3.8-0.59,7.51-0.35,11.01,1.37c1.06,0.52,2.03,1.25,3,1.94c0.24,0.17,0.42,0.54,0.46,0.84c0.06,0.47-0.37,0.83-0.9,0.84
		c-0.7,0.01-1.4,0-2.11,0c-0.83,0.01-1.66,0.05-2.49,0.03c-0.32-0.01-0.44,0.16-0.59,0.39c-1.56,2.45-3.12,4.89-4.68,7.34
		c-0.07,0.12-0.16,0.23-0.27,0.39c-0.56-0.91-1.1-1.77-1.63-2.64c-0.86-1.38-1.72-2.76-2.56-4.15c-0.48-0.8-1.15-1.3-2.07-1.34
		C42.4,5.26,41.21,5.3,39.97,5.3c0,6.07,0,12.11,0,18.18C36.41,22.31,33.03,22.16,29.87,24.7z"/>
	<path class="st0" d="M70.02,7.95c-0.07-0.63-0.2-1.26-0.33-1.91c-0.02-0.24-0.05-0.47-0.08-0.69c-0.2,0.16-0.39,0.33-0.58,0.51
		c-2.89,2.03-5.99,1.87-9.23,0.89c0,0.23,0,0.42,0,0.61c0,5,0.01,9.99,0.01,14.99c0,1.13-0.64,2.16-1.66,2.35
		c-0.92,0.17-1.89,0.12-2.89,0.17c0-3.5,0-6.89,0-10.38c-0.19,0.24-0.31,0.38-0.42,0.53c-1.12,1.48-2.23,2.95-3.35,4.43
		c-0.98,1.29-2.31,1.28-3.29-0.01c-1.21-1.61-2.42-3.21-3.72-4.93c-0.02,0.26-0.03,0.38-0.03,0.51c0,2.44,0,4.89,0,7.33
		c0,1.46-1.02,2.47-2.47,2.48c-0.78,0-1.56,0-2.35,0c-0.38,0-0.71,0.16-0.77,0.51c-0.06,0.29,0.03,0.65,0.16,0.92
		c0.02,0.04,0.04,0.07,0.07,0.1c0.01,0.02,0.02,0.03,0.04,0.04c0,0,0,0,0,0c0.1,0.1,0.23,0.18,0.36,0.26
		c0.83,0.62,1.62,1.28,2.55,1.74c2.46,1.2,5.01,1.68,7.64,1.65c0.94,0.01,1.89-0.05,2.87-0.21c0.11-0.02,0.23-0.04,0.35-0.05
		c0.05-0.01,0.11-0.01,0.16-0.02c4.54-0.7,8.5-2.56,11.65-5.95c1.72-1.86,2.98-3.81,3.82-5.89c0.01-0.03,0.03-0.06,0.05-0.09
		C69.86,14.64,70.39,11.36,70.02,7.95z"/>
	<path class="st0" d="M0,39.94c0.99,0,1.95-0.03,2.9,0.01c0.6,0.03,1.02,0.4,1.33,0.91C5.2,42.43,6.18,44,7.16,45.57
		c0.09,0.15,0.19,0.29,0.33,0.5c0.14-0.2,0.26-0.35,0.35-0.5c1.14-1.77,2.28-3.54,3.4-5.33c0.17-0.28,0.36-0.41,0.69-0.38
		c0.49,0.04,0.99-0.01,1.48,0.07c1.06,0.18,1.58,0.83,1.58,1.93c0,3.45,0,6.9,0,10.35c0,0.29,0.01,0.58-0.01,0.86
		c-0.05,0.9-0.76,1.57-1.66,1.58c-0.53,0.01-1.05,0-1.65,0c0-2.6,0-5.17,0-7.73c-0.04-0.01-0.08-0.02-0.11-0.03
		c-0.12,0.14-0.24,0.28-0.35,0.42c-0.84,1.11-1.67,2.22-2.51,3.32c-0.7,0.92-1.7,0.92-2.4,0c-0.86-1.13-1.71-2.27-2.56-3.4
		c-0.08-0.11-0.18-0.22-0.35-0.43c-0.01,0.28-0.03,0.44-0.03,0.6c0,1.74-0.03,3.48,0.01,5.22c0.02,1.21-0.77,2.15-2.03,2.03
		C0.89,54.64,0.46,54.67,0,54.67C0,49.73,0,44.84,0,39.94z"/>
	<path class="st0" d="M55.2,40.05c1.71-0.54,3.49-0.05,4.51,1.24c1.76,2.21,3.51,4.43,5.26,6.64c0.16,0.2,0.31,0.39,0.58,0.56
		c0.01-0.16,0.03-0.32,0.03-0.48c0-2.52,0.01-5.05-0.01-7.57c0-0.4,0.11-0.55,0.51-0.52c0.43,0.03,0.86,0,1.29,0.03
		c0.83,0.07,1.44,0.68,1.52,1.51c0.01,0.14,0.02,0.29,0.02,0.43c0,4.06-0.01,8.11,0.01,12.17c0,0.47-0.11,0.67-0.61,0.62
		c-0.43-0.04-0.86-0.02-1.29-0.01c-0.76,0.02-1.35-0.3-1.82-0.89c-1.79-2.25-3.58-4.5-5.37-6.74c-0.12-0.14-0.24-0.28-0.45-0.53
		c-0.02,0.34-0.05,0.53-0.05,0.73c0,2.25,0,4.5,0,6.75c0,0.66,0,0.67-0.69,0.67c-0.81,0-1.63,0-2.44-0.01
		c-0.04,0-0.09-0.02-0.2-0.05c0-0.17,0-0.36,0-0.54c0-3.85,0-7.7,0-11.54C56,41.62,56.12,40.69,55.2,40.05z"/>
	<path class="st0" d="M79.05,54.84c-4.23-0.05-7.31-3.45-7.31-7.55c0.01-4.64,3.83-7.45,7.34-7.46c3.7-0.01,7.29,3.02,7.3,7.53
		C86.4,51.43,83.23,54.79,79.05,54.84z M82.93,47.41c-0.15-0.71-0.22-1.32-0.41-1.88c-0.51-1.52-1.8-2.49-3.31-2.54
		c-1.55-0.05-2.89,0.8-3.5,2.28c-0.57,1.37-0.59,2.77,0.01,4.14c0.6,1.37,1.62,2.19,3.15,2.26c1.64,0.08,2.8-0.68,3.46-2.14
		C82.63,48.83,82.75,48.07,82.93,47.41z"/>
	<path class="st0" d="M25.33,39.87c4.04-0.13,7.25,3.51,7.27,7.49c0.02,3.42-2.66,7.44-7.32,7.47c-4.57,0.03-7.42-3.98-7.32-7.71
		C18.06,42.99,21.53,39.72,25.33,39.87z M25.28,51.67c1.37,0.01,2.42-0.61,3.08-1.77c0.91-1.59,0.96-3.26,0.16-4.9
		c-0.62-1.26-1.67-1.95-3.09-2.01c-1.44-0.06-2.56,0.56-3.25,1.81c-0.96,1.74-0.93,3.52,0.1,5.23
		C22.94,51.13,23.97,51.68,25.28,51.67z"/>
	<path class="st0" d="M88.22,53.03c0.19-0.38,0.36-0.72,0.53-1.06c0.52-1.03,1.4-1.37,2.47-0.93c1.12,0.46,2.27,0.86,3.51,0.8
		c0.28-0.01,0.57-0.06,0.84-0.14c0.45-0.12,0.76-0.42,0.82-0.9c0.05-0.43-0.14-0.81-0.51-1c-0.5-0.27-1.03-0.5-1.57-0.69
		c-0.96-0.34-1.94-0.62-2.9-0.96c-3.62-1.26-2.99-5.55-1-7.11c1.3-1.02,2.79-1.41,4.4-1.2c1.08,0.14,2.15,0.44,3.18,0.79
		c1.02,0.34,1.3,1.2,0.82,2.16c-0.22,0.44-0.46,0.87-0.69,1.3c-0.66-0.31-1.27-0.64-1.91-0.89c-0.94-0.38-1.92-0.57-2.94-0.32
		c-0.53,0.13-0.89,0.44-0.97,0.99c-0.09,0.54,0.17,0.97,0.64,1.17c0.7,0.3,1.43,0.51,2.15,0.77c0.97,0.35,1.98,0.62,2.91,1.06
		c1.57,0.75,2.21,2.26,1.97,3.99c-0.31,2.28-1.55,3.5-3.94,3.87c-2.72,0.42-5.25-0.18-7.62-1.56C88.34,53.15,88.3,53.1,88.22,53.03z
		"/>
	<path class="st0" d="M38.89,51.29c0.24,0.02,0.45,0.04,0.65,0.04c1.39,0,2.78,0,4.16,0c1.22,0,1.89,0.68,1.9,1.9
		c0,0.46,0,0.92,0,1.42c-0.22,0.01-0.39,0.03-0.56,0.03c-3.03,0-6.06-0.01-9.1,0.01c-0.44,0-0.56-0.12-0.56-0.56
		c0.02-4,0-8.01,0.02-12.02c0-0.8-0.11-1.53-0.88-2.1c0.21-0.03,0.32-0.07,0.43-0.07c0.67-0.01,1.34-0.01,2.01,0
		c1.23,0.01,1.92,0.71,1.92,1.94c0,2.94,0,5.87,0,8.81C38.89,50.87,38.89,51.06,38.89,51.29z"/>
	<path class="st0" d="M47.71,39.98c1.04,0,2.01-0.05,2.97,0.02C51.39,40.05,52,40.82,52,41.6c0.01,4.29,0,8.59,0,12.88
		c0,0.04-0.03,0.09-0.05,0.17c-0.71,0-1.43,0.07-2.13-0.02c-0.77-0.09-1.3-0.86-1.3-1.72c-0.01-2.25,0-4.5,0-6.75
		c0-1.31,0-2.62,0-3.93C48.52,40.99,48.5,40.94,47.71,39.98z"/>
</g>
</svg>
